<?xml version="1.0" standalone="no"?>
<!DOCTYPE svg PUBLIC "-//W3C//DTD SVG 20010904//EN"
 "http://www.w3.org/TR/2001/REC-SVG-20010904/DTD/svg10.dtd">
<svg version="1.0" xmlns="http://www.w3.org/2000/svg"
 width="506.000000pt" height="161.000000pt" viewBox="0 0 506.000000 161.000000"
 preserveAspectRatio="xMidYMid meet">

<g transform="translate(0.000000,161.000000) scale(0.100000,-0.100000)"
fill="#000000" stroke="none">
<path d="M2540 1256 c0 -152 -3 -276 -6 -276 -4 0 -84 61 -179 135 -95 74
-176 135 -179 135 -3 0 -6 -120 -6 -267 l0 -267 -77 -74 -78 -74 -3 86 -3 86
-110 98 c-60 53 -114 98 -119 100 -6 2 -10 -60 -10 -159 l0 -162 -40 -44 -41
-43 1 -178 c0 -97 1 -187 0 -199 l0 -23 -770 0 c-678 0 -770 -2 -770 -15 0
-13 94 -15 790 -15 l790 0 0 213 0 213 40 44 39 45 1 128 c0 70 4 127 8 127 5
0 43 -32 85 -71 l77 -71 0 -98 0 -99 -50 -51 -50 -52 2 -161 3 -162 63 -3 62
-3 0 208 0 209 73 72 c40 40 76 69 80 66 4 -4 7 -131 7 -281 l0 -274 58 3 57
3 3 357 c1 197 -1 358 -6 358 -5 0 -21 -13 -37 -30 -15 -16 -32 -27 -37 -24
-10 6 -11 411 0 417 4 3 80 -52 169 -122 l162 -126 3 -415 3 -415 98 -3 97 -3
0 359 0 358 -80 60 c-44 32 -82 68 -85 79 -3 11 -4 134 -3 273 l3 253 233
-173 232 -173 0 -517 0 -518 850 0 c560 0 850 3 850 10 0 7 -283 10 -830 10
l-830 0 0 513 0 512 -257 189 c-142 104 -264 191 -270 193 -10 4 -13 -54 -13
-271z m73 -409 c-3 -6 -1 -7 6 -3 13 8 44 -18 33 -28 -3 -4 1 -4 10 -1 9 4 18
0 21 -10 5 -11 10 -456 7 -652 0 -21 -5 -23 -50 -23 l-50 0 0 376 c0 332 2
375 15 364 8 -7 12 -17 8 -23z m-374 -418 c0 -250 -2 -289 -14 -279 -19 16
-22 500 -2 512 9 6 9 8 0 8 -7 0 -13 9 -13 19 0 16 5 22 27 30 1 1 2 -130 2
-290z m-279 -135 c0 -120 -3 -155 -12 -152 -18 6 -24 253 -7 285 7 13 14 23
16 23 2 0 3 -70 3 -156z"/>
<path d="M2637 749 c7 -7 15 -10 18 -7 3 3 -2 9 -12 12 -14 6 -15 5 -6 -5z"/>
<path d="M2610 180 c0 -5 5 -10 11 -10 5 0 7 5 4 10 -3 6 -8 10 -11 10 -2 0
-4 -4 -4 -10z"/>
<path d="M2658 163 c7 -3 16 -2 19 1 4 3 -2 6 -13 5 -11 0 -14 -3 -6 -6z"/>
<path d="M3775 635 c-55 -15 -85 -44 -85 -84 0 -43 33 -68 127 -97 118 -37
151 -76 104 -123 -43 -43 -173 -34 -191 14 -11 29 -22 36 -39 26 -17 -11 -1
-41 35 -70 22 -17 41 -21 101 -21 106 0 153 29 153 95 0 38 -40 72 -106 90
-121 34 -151 55 -140 100 7 29 56 55 102 55 40 0 94 -29 94 -51 0 -14 7 -19
25 -19 31 0 31 11 0 48 -15 18 -41 34 -69 41 -53 13 -48 13 -111 -4z"/>
<path d="M4355 641 c-86 -21 -96 -38 -97 -173 -1 -133 3 -148 41 -171 40 -23
162 -24 201 0 42 24 50 53 50 168 0 96 -2 106 -25 133 -18 22 -40 34 -76 41
-55 12 -51 12 -94 2z m125 -46 c18 -16 20 -31 20 -136 0 -129 -5 -142 -60
-154 -44 -10 -105 3 -127 27 -14 16 -19 40 -22 109 -4 113 2 135 42 160 39 25
117 21 147 -6z"/>
<path d="M84 632 c-7 -4 -11 -67 -13 -179 l-1 -173 100 0 c147 0 193 24 193
102 0 34 -6 46 -28 64 l-28 22 28 25 c56 47 29 119 -51 137 -47 11 -185 13
-200 2z m205 -37 c29 -14 40 -37 33 -67 -6 -29 -66 -49 -135 -46 l-62 3 -3 63
-3 62 71 0 c43 0 82 -6 99 -15z m10 -163 c27 -21 31 -76 7 -100 -12 -13 -39
-18 -101 -21 l-85 -3 0 71 0 71 79 0 c60 0 84 -4 100 -18z"/>
<path d="M467 634 c-4 -4 -7 -74 -7 -155 l0 -147 31 -26 c27 -23 39 -26 105
-26 85 0 130 17 144 56 13 32 13 291 1 298 -5 4 -15 4 -23 1 -10 -4 -13 -37
-12 -147 1 -162 -3 -172 -80 -183 -34 -5 -54 -3 -83 11 l-38 19 -5 149 c-5
139 -12 171 -33 150z"/>
<path d="M877 633 c-4 -3 -7 -84 -7 -180 0 -173 0 -173 23 -173 l22 0 -3 180
c-2 139 -6 180 -16 180 -7 0 -16 -3 -19 -7z"/>
<path d="M1037 634 c-4 -4 -7 -85 -7 -181 l0 -173 126 0 c111 0 125 2 114 15
-9 11 -35 15 -106 15 l-94 0 -2 162 c-3 151 -9 184 -31 162z"/>
<path d="M1368 634 c-5 -4 -8 -86 -8 -182 l0 -174 114 4 c98 3 119 6 143 24
28 21 28 21 31 152 l3 130 -32 23 c-27 19 -48 23 -138 27 -58 2 -109 1 -113
-4z m212 -39 l30 -16 0 -118 c0 -145 0 -145 -117 -150 l-83 -3 0 151 0 151 70
0 c44 0 82 -6 100 -15z"/>
<path d="M3137 633 c-8 -13 140 -348 153 -348 17 0 160 337 149 350 -16 17
-37 -17 -87 -140 -26 -65 -53 -120 -58 -122 -11 -4 -40 55 -90 182 -30 77 -52
102 -67 78z"/>
<path d="M3537 633 c-4 -3 -7 -84 -7 -180 0 -166 1 -173 20 -173 19 0 20 7 20
180 0 143 -3 180 -13 180 -8 0 -17 -3 -20 -7z"/>
<path d="M4097 634 c-4 -4 -7 -85 -7 -181 l0 -173 25 0 25 0 -2 177 c-3 151
-5 178 -18 181 -9 1 -19 0 -23 -4z"/>
<path d="M4670 461 c0 -174 1 -181 20 -181 19 0 20 7 20 130 0 100 3 128 13
124 6 -3 59 -62 115 -130 57 -68 108 -124 113 -124 6 0 8 72 7 178 -3 149 -5
177 -18 177 -12 0 -16 -23 -20 -127 -4 -90 -8 -125 -16 -120 -6 4 -53 57 -103
117 -140 168 -131 171 -131 -44z"/>
</g>
</svg>
